<?xml version="1.0" encoding="utf-8"?>
<svg version="1.1" xmlns:xlink="http://www.w3.org/1999/xlink" width="67px" height="47px" xmlns="http://www.w3.org/2000/svg">
  <g transform="matrix(1 0 0 1 -255 -479 )">
    <path d="M 255 479  L 322 479  L 322 526  L 255 526  L 255 479  " fill-rule="nonzero" fill="#cccccc" stroke="none" />
    <path d="M 258 482  L 319 482  L 319 523  L 258 523  L 258 482  " fill-rule="nonzero" fill="#ffffff" stroke="none" />
    <path d="M 293.365 493.1  C 291.391 493.1  289.84 491.549  289.84 489.575  C 289.84 487.601  291.391 486.05  293.365 486.05  C 295.339 486.05  296.89 487.601  296.89 489.575  C 296.89 491.549  295.339 493.1  293.365 493.1  " fill-rule="nonzero" fill="#cccccc" stroke="none" />
    <path d="M 259 522  L 259 500.55  L 273.75 490.8  L 294.4 505.585074626866  L 306.2 496.65  L 318 505.585074626866  L 318 522  L 259 522  " fill-rule="nonzero" fill="#169bd5" stroke="none" />
  </g>
</svg>