<?xml version="1.0" encoding="utf-8"?>
<svg version="1.1" xmlns:xlink="http://www.w3.org/1999/xlink" width="100px" height="100px" xmlns="http://www.w3.org/2000/svg">
  <g transform="matrix(1 0 0 1 -75 -22 )">
    <path d="M 75 22  L 175 22  L 175 122  L 75 122  L 75 22  " fill-rule="nonzero" fill="#cccccc" stroke="none" />
    <path d="M 82 29  L 168 29  L 168 115  L 82 115  L 82 29  " fill-rule="nonzero" fill="#ffffff" stroke="none" />
    <path d="M 134.5 52  C 130.3 52  127 48.7  127 44.5  C 127 40.3  130.3 37  134.5 37  C 138.7 37  142 40.3  142 44.5  C 142 48.7  138.7 52  134.5 52  " fill-rule="nonzero" fill="#cccccc" stroke="none" />
    <path d="M 85 113  L 85 68.45  L 105.25 48.2  L 133.6 64.4  L 149.8 60.35  L 166 64.4  L 166 113  L 85 113  " fill-rule="nonzero" fill="#169bd5" stroke="none" />
  </g>
</svg>