<?xml version="1.0" encoding="utf-8"?>
<svg version="1.1" xmlns:xlink="http://www.w3.org/1999/xlink" width="87px" height="74px" xmlns="http://www.w3.org/2000/svg">
  <g transform="matrix(1 0 0 1 -697 -298 )">
    <path d="M 697 298  L 784 298  L 784 372  L 697 372  L 697 298  " fill-rule="nonzero" fill="#cccccc" stroke="none" />
    <path d="M 702 303  L 779 303  L 779 367  L 702 367  L 702 303  " fill-rule="nonzero" fill="#ffffff" stroke="none" />
    <path d="M 747.79 320.2  C 744.682 320.2  742.24 317.758  742.24 314.65  C 742.24 311.542  744.682 309.1  747.79 309.1  C 750.898 309.1  753.34 311.542  753.34 314.65  C 753.34 317.758  750.898 320.2  747.79 320.2  " fill-rule="nonzero" fill="#cccccc" stroke="none" />
    <path d="M 704 365  L 704 332  L 722.25 317  L 747.8 334.379310344828  L 762.4 326  L 777 334.379310344828  L 777 365  L 704 365  " fill-rule="nonzero" fill="#169bd5" stroke="none" />
  </g>
</svg>