<?xml version="1.0" encoding="utf-8"?>
<svg version="1.1" xmlns:xlink="http://www.w3.org/1999/xlink" width="94px" height="123px" xmlns="http://www.w3.org/2000/svg">
  <g transform="matrix(1 0 0 1 -257 -238 )">
    <path d="M 257 238  L 351 238  L 351 361  L 257 361  L 257 238  " fill-rule="nonzero" fill="#cccccc" stroke="none" />
    <path d="M 264 245  L 344 245  L 344 354  L 264 354  L 264 245  " fill-rule="nonzero" fill="#ffffff" stroke="none" />
    <path d="M 312.93 270.55  C 308.982 270.55  305.88 267.448  305.88 263.5  C 305.88 259.552  308.982 256.45  312.93 256.45  C 316.878 256.45  319.98 259.552  319.98 263.5  C 319.98 267.448  316.878 270.55  312.93 270.55  " fill-rule="nonzero" fill="#cccccc" stroke="none" />
    <path d="M 267 352  L 267 294.8  L 285.75 268.8  L 312 289.6  L 327 284.4  L 342 289.6  L 342 352  L 267 352  " fill-rule="nonzero" fill="#169bd5" stroke="none" />
  </g>
</svg>